# xmcd
#
# Track frame offsets:
#	150
#	16295
#	29963
#	46410
#	61595
#	76915
#	91063
#	106796
#	123166
#	140226
#	153813
#	169958
#	183626
#	200073
#	220904
#	236221
#	250366
#	266099
#	282469
#	299531
#
# Disc length: 4174 seconds
#
# Revision: 1
# Processed by: cddbd v1.5.2PL0 Copyright (c) Steve Scherf et al.
# Submitted via: audiograbber 1.83.01
#
DISCID=30104c14
DTITLE=Toby Keith - Karaoke
DYEAR=1900
DGENRE=
TTITLE0=Should've Been A Cowboy
TTITLE1=A Little Less Talk And A Lot More Action
TTITLE2=Wish I Didn't Know Now
TTITLE3=Getcha Some
TTITLE4=If A Man Answers
TTITLE5=When Love Fades
TTITLE6=How Do You Like Me Now
TTITLE7=Country Comes To Town
TTITLE8=You Shouldn't Kiss Me Like This
TTITLE9=I'm Just Talkin' About Tonight
TTITLE10=Should've Been A Cowboy
TTITLE11=A Little Less Talk And A Lot More Action
TTITLE12=Wish I Didn't Know Now
TTITLE13=Getcha Some
TTITLE14=If A Man Answers
TTITLE15=When Love Fades
TTITLE16=How Do You Like Me Now
TTITLE17=Country Comes To Town
TTITLE18=You Shouldn't Kiss Me Like This
TTITLE19=I'm Just Talkin' About Tonight
EXTD=
EXTT0=
EXTT1=
EXTT2=
EXTT3=
EXTT4=
EXTT5=
EXTT6=
EXTT7=
EXTT8=
EXTT9=
EXTT10=
EXTT11=
EXTT12=
EXTT13=
EXTT14=
EXTT15=
EXTT16=
EXTT17=
EXTT18=
EXTT19=
PLAYORDER=
